<svg width="125" height="28" viewBox="0 0 125 28" fill="none" xmlns="http://www.w3.org/2000/svg">
<g clip-path="url(#clip0_56_3248)">
<rect width="27.792" height="27.792" rx="6" fill="#0B68F7"/>
<path d="M13.6748 6.34898L13.6758 6.34995L13.6777 6.34898L13.6768 6.34995C13.885 6.35317 14.0869 6.42218 14.252 6.54917L14.3672 6.65367C14.4733 6.76667 14.5515 6.90432 14.5938 7.05503L17.4717 17.2904L18.8877 13.5169L18.9492 13.3832C19.0208 13.2555 19.1209 13.145 19.2422 13.0609L19.3691 12.9867C19.5005 12.9225 19.6455 12.8891 19.793 12.889H42.1826C42.4391 12.8891 42.6848 12.9909 42.8662 13.1722L42.9307 13.2435C43.0717 13.4157 43.1504 13.6323 43.1504 13.8568C43.1503 14.0811 43.0716 14.2971 42.9307 14.4691L42.8662 14.5404C42.6848 14.7217 42.4391 14.8235 42.1826 14.8236H20.4639L18.2461 20.7367C18.1924 20.8798 18.1058 21.0073 17.9941 21.1097L17.875 21.2035C17.7474 21.288 17.6018 21.3404 17.4512 21.3578L17.2998 21.3636C17.147 21.3572 16.9983 21.3148 16.8662 21.2406L16.7402 21.1556C16.6202 21.0607 16.5253 20.9389 16.4619 20.8011L16.4092 20.6585L13.6123 10.7152L12.541 14.1449C12.4949 14.2926 12.4142 14.4263 12.3066 14.5355L12.1904 14.6361C12.0661 14.7275 11.9224 14.7875 11.7715 14.8119L11.6182 14.8236H-9.18262C-9.40715 14.8236 -9.62375 14.7459 -9.7959 14.6048L-9.86621 14.5404C-10.0476 14.359 -10.1503 14.1133 -10.1504 13.8568C-10.1504 13.6002 -10.0477 13.3537 -9.86621 13.1722L-9.7959 13.1078C-9.62376 12.9667 -9.40712 12.8891 -9.18262 12.889H10.9072L12.7383 7.02769L12.7959 6.88316C12.8653 6.74437 12.9677 6.6234 13.0947 6.5316L13.2275 6.45152C13.3648 6.38264 13.5169 6.34828 13.6719 6.34995L13.6729 6.34898H13.6748Z" fill="white" stroke="white" stroke-width="0.3"/>
</g>
<path d="M36.5339 22.072C36.1232 22.072 35.8079 21.9547 35.5879 21.72C35.3679 21.4854 35.2579 21.1627 35.2579 20.752V7.53002C35.2579 7.10468 35.3752 6.78202 35.6099 6.56202C35.8446 6.32735 36.1672 6.21002 36.5779 6.21002C36.9446 6.21002 37.2306 6.28335 37.4359 6.43002C37.6559 6.56202 37.8539 6.79669 38.0299 7.13402L43.4639 17.188H42.7599L48.1939 7.13402C48.3699 6.79669 48.5606 6.56202 48.7659 6.43002C48.9712 6.28335 49.2572 6.21002 49.6239 6.21002C50.0346 6.21002 50.3499 6.32735 50.5699 6.56202C50.7899 6.78202 50.8999 7.10468 50.8999 7.53002V20.752C50.8999 21.1627 50.7899 21.4854 50.5699 21.72C50.3646 21.9547 50.0492 22.072 49.6239 22.072C49.2132 22.072 48.8979 21.9547 48.6779 21.72C48.4579 21.4854 48.3479 21.1627 48.3479 20.752V10.566H48.8319L44.2119 18.992C44.0652 19.2414 43.9112 19.4247 43.7499 19.542C43.5886 19.6594 43.3686 19.718 43.0899 19.718C42.8112 19.718 42.5839 19.6594 42.4079 19.542C42.2319 19.41 42.0779 19.2267 41.9459 18.992L37.2819 10.544H37.8099V20.752C37.8099 21.1627 37.6999 21.4854 37.4799 21.72C37.2746 21.9547 36.9592 22.072 36.5339 22.072ZM56.7775 26.032C56.4548 26.032 56.1908 25.944 55.9855 25.768C55.7802 25.6067 55.6555 25.3867 55.6115 25.108C55.5822 24.8294 55.6335 24.536 55.7655 24.228L57.2615 20.906V22.05L53.2575 12.788C53.1255 12.4654 53.0815 12.1647 53.1255 11.886C53.1695 11.6074 53.3015 11.3874 53.5215 11.226C53.7562 11.05 54.0715 10.962 54.4675 10.962C54.8048 10.962 55.0762 11.0427 55.2815 11.204C55.4868 11.3507 55.6702 11.6367 55.8315 12.062L58.8015 19.476H58.1415L61.1775 12.04C61.3388 11.6294 61.5295 11.3507 61.7495 11.204C61.9695 11.0427 62.2628 10.962 62.6295 10.962C62.9522 10.962 63.2088 11.05 63.3995 11.226C63.5902 11.3874 63.7075 11.6074 63.7515 11.886C63.7955 12.15 63.7442 12.4434 63.5975 12.766L58.2515 24.976C58.0608 25.3867 57.8555 25.6654 57.6355 25.812C57.4155 25.9587 57.1295 26.032 56.7775 26.032ZM65.8969 22.006C65.3982 22.006 64.9949 21.852 64.6869 21.544C64.3935 21.236 64.2469 20.84 64.2469 20.356C64.2469 19.8867 64.3935 19.5054 64.6869 19.212C64.9949 18.904 65.3982 18.75 65.8969 18.75C66.4102 18.75 66.8062 18.904 67.0849 19.212C67.3782 19.5054 67.5249 19.8867 67.5249 20.356C67.5249 20.84 67.3782 21.236 67.0849 21.544C66.8062 21.852 66.4102 22.006 65.8969 22.006ZM76.676 22.116C75.0627 22.116 73.6767 21.7934 72.518 21.148C71.374 20.488 70.494 19.564 69.878 18.376C69.262 17.1734 68.954 15.758 68.954 14.13C68.954 12.9127 69.13 11.82 69.482 10.852C69.834 9.86935 70.34 9.03335 71 8.34402C71.66 7.64002 72.4667 7.10469 73.42 6.73802C74.388 6.35669 75.4733 6.16602 76.676 6.16602C77.4827 6.16602 78.2747 6.26868 79.052 6.47402C79.8293 6.67935 80.5113 6.97269 81.098 7.35402C81.406 7.54469 81.6113 7.77935 81.714 8.05802C81.8167 8.32202 81.8387 8.58602 81.78 8.85002C81.7213 9.09935 81.5967 9.31202 81.406 9.48802C81.23 9.66402 81.0027 9.76668 80.724 9.79602C80.46 9.81069 80.1667 9.71535 79.844 9.51002C79.3893 9.21669 78.898 9.00402 78.37 8.87202C77.842 8.74002 77.3067 8.67402 76.764 8.67402C75.7227 8.67402 74.8427 8.88669 74.124 9.31202C73.4053 9.73735 72.8627 10.3534 72.496 11.16C72.1293 11.9667 71.946 12.9567 71.946 14.13C71.946 15.2887 72.1293 16.2787 72.496 17.1C72.8627 17.9214 73.4053 18.5447 74.124 18.97C74.8427 19.3954 75.7227 19.608 76.764 19.608C77.3213 19.608 77.8713 19.542 78.414 19.41C78.9567 19.2634 79.47 19.0434 79.954 18.75C80.2767 18.5594 80.5627 18.4787 80.812 18.508C81.076 18.5227 81.296 18.6107 81.472 18.772C81.648 18.9334 81.7653 19.1387 81.824 19.388C81.8827 19.6227 81.868 19.872 81.78 20.136C81.692 20.3854 81.516 20.6054 81.252 20.796C80.6653 21.2214 79.9613 21.5514 79.14 21.786C78.3333 22.006 77.512 22.116 76.676 22.116ZM87.8231 22.116C86.6058 22.116 85.6891 21.7714 85.0731 21.082C84.4571 20.378 84.1491 19.3514 84.1491 18.002V7.59602C84.1491 7.14135 84.2664 6.79668 84.5011 6.56202C84.7358 6.32735 85.0731 6.21002 85.5131 6.21002C85.9531 6.21002 86.2904 6.32735 86.5251 6.56202C86.7744 6.79668 86.8991 7.14135 86.8991 7.59602V17.87C86.8991 18.5447 87.0384 19.0434 87.3171 19.366C87.6104 19.6887 88.0211 19.85 88.5491 19.85C88.6664 19.85 88.7764 19.85 88.8791 19.85C88.9818 19.8354 89.0844 19.8207 89.1871 19.806C89.3924 19.7767 89.5318 19.8354 89.6051 19.982C89.6784 20.114 89.7151 20.3927 89.7151 20.818C89.7151 21.1847 89.6418 21.4707 89.4951 21.676C89.3484 21.8814 89.1064 22.006 88.7691 22.05C88.6224 22.0647 88.4684 22.0794 88.3071 22.094C88.1458 22.1087 87.9844 22.116 87.8231 22.116ZM92.5385 22.05C92.0985 22.05 91.7612 21.918 91.5265 21.654C91.2918 21.39 91.1745 21.0234 91.1745 20.554V12.48C91.1745 11.996 91.2918 11.6294 91.5265 11.38C91.7612 11.116 92.0985 10.984 92.5385 10.984C92.9785 10.984 93.3158 11.116 93.5505 11.38C93.7998 11.6294 93.9245 11.996 93.9245 12.48V20.554C93.9245 21.0234 93.8072 21.39 93.5725 21.654C93.3378 21.918 92.9932 22.05 92.5385 22.05ZM92.5385 8.93802C92.0252 8.93802 91.6218 8.81335 91.3285 8.56402C91.0498 8.30002 90.9105 7.94069 90.9105 7.48602C90.9105 7.01668 91.0498 6.65735 91.3285 6.40802C91.6218 6.15869 92.0252 6.03402 92.5385 6.03402C93.0665 6.03402 93.4698 6.15869 93.7485 6.40802C94.0272 6.65735 94.1665 7.01668 94.1665 7.48602C94.1665 7.94069 94.0272 8.30002 93.7485 8.56402C93.4698 8.81335 93.0665 8.93802 92.5385 8.93802ZM98.1459 22.072C97.7059 22.072 97.3686 21.9547 97.1339 21.72C96.8993 21.4707 96.7819 21.1187 96.7819 20.664V12.348C96.7819 11.8934 96.8993 11.5487 97.1339 11.314C97.3686 11.0794 97.6986 10.962 98.1239 10.962C98.5493 10.962 98.8793 11.0794 99.1139 11.314C99.3486 11.5487 99.4659 11.8934 99.4659 12.348V13.844L99.2239 13.294C99.5466 12.5167 100.045 11.93 100.72 11.534C101.409 11.1234 102.187 10.918 103.052 10.918C103.917 10.918 104.629 11.0794 105.186 11.402C105.743 11.7247 106.161 12.216 106.44 12.876C106.719 13.5214 106.858 14.3427 106.858 15.34V20.664C106.858 21.1187 106.741 21.4707 106.506 21.72C106.271 21.9547 105.934 22.072 105.494 22.072C105.054 22.072 104.709 21.9547 104.46 21.72C104.225 21.4707 104.108 21.1187 104.108 20.664V15.472C104.108 14.636 103.947 14.0274 103.624 13.646C103.316 13.2647 102.832 13.074 102.172 13.074C101.365 13.074 100.72 13.3307 100.236 13.844C99.7666 14.3427 99.5319 15.01 99.5319 15.846V20.664C99.5319 21.6027 99.0699 22.072 98.1459 22.072ZM111.015 22.05C110.575 22.05 110.238 21.918 110.003 21.654C109.768 21.39 109.651 21.0234 109.651 20.554V12.48C109.651 11.996 109.768 11.6294 110.003 11.38C110.238 11.116 110.575 10.984 111.015 10.984C111.455 10.984 111.792 11.116 112.027 11.38C112.276 11.6294 112.401 11.996 112.401 12.48V20.554C112.401 21.0234 112.284 21.39 112.049 21.654C111.814 21.918 111.47 22.05 111.015 22.05ZM111.015 8.93802C110.502 8.93802 110.098 8.81335 109.805 8.56402C109.526 8.30002 109.387 7.94069 109.387 7.48602C109.387 7.01668 109.526 6.65735 109.805 6.40802C110.098 6.15869 110.502 6.03402 111.015 6.03402C111.543 6.03402 111.946 6.15869 112.225 6.40802C112.504 6.65735 112.643 7.01668 112.643 7.48602C112.643 7.94069 112.504 8.30002 112.225 8.56402C111.946 8.81335 111.543 8.93802 111.015 8.93802ZM120.23 22.116C119.101 22.116 118.118 21.8887 117.282 21.434C116.446 20.9647 115.801 20.3047 115.346 19.454C114.892 18.6034 114.664 17.606 114.664 16.462C114.664 15.5967 114.789 14.8267 115.038 14.152C115.302 13.4627 115.676 12.8834 116.16 12.414C116.644 11.93 117.231 11.5634 117.92 11.314C118.61 11.05 119.38 10.918 120.23 10.918C120.714 10.918 121.235 10.984 121.792 11.116C122.364 11.248 122.9 11.468 123.398 11.776C123.633 11.9227 123.787 12.0987 123.86 12.304C123.934 12.5094 123.948 12.722 123.904 12.942C123.86 13.1474 123.765 13.3307 123.618 13.492C123.486 13.6387 123.318 13.734 123.112 13.778C122.907 13.8074 122.68 13.756 122.43 13.624C122.108 13.4334 121.778 13.294 121.44 13.206C121.103 13.1034 120.78 13.052 120.472 13.052C119.988 13.052 119.563 13.1327 119.196 13.294C118.83 13.4407 118.514 13.6607 118.25 13.954C118.001 14.2327 117.81 14.5847 117.678 15.01C117.546 15.4354 117.48 15.9267 117.48 16.484C117.48 17.5694 117.737 18.4274 118.25 19.058C118.778 19.674 119.519 19.982 120.472 19.982C120.78 19.982 121.096 19.938 121.418 19.85C121.756 19.762 122.093 19.6227 122.43 19.432C122.68 19.3 122.9 19.256 123.09 19.3C123.296 19.344 123.464 19.4467 123.596 19.608C123.728 19.7547 123.809 19.938 123.838 20.158C123.868 20.3634 123.838 20.5687 123.75 20.774C123.677 20.9794 123.53 21.148 123.31 21.28C122.826 21.5734 122.313 21.786 121.77 21.918C121.228 22.05 120.714 22.116 120.23 22.116Z" fill="#0E0A2F"/>
<defs>
<clipPath id="clip0_56_3248">
<rect width="27.792" height="27.792" rx="6" fill="white"/>
</clipPath>
</defs>
</svg>
